# xmcd CD database file
#
# Track frame offsets:
#	150
#	26692
#	61367
#	88597
#	109140
#	152725
#
# Disc length: 2751 seconds
#
# Revision: 0
# Processed by: cddbd v1.5.2PL0 Copyright (c) Steve Scherf et al.
# Submitted via: CDex 1.70beta3
#
DISCID=450abd06
DTITLE=Kondo Toshinori - Kamikaze Blow
DYEAR=1989
DGENRE=Jazz
TTITLE0=YAMI
TTITLE1=Last Lost
TTITLE2=Banana Plantation
TTITLE3=96
TTITLE4=Porto Novo
TTITLE5=Y.U
EXTD=YEAR: 1989
EXTT0=
EXTT1=
EXTT2=
EXTT3=
EXTT4=
EXTT5=
PLAYORDER=
